<?xml version="1.0" encoding="UTF-8"?>
<svg version="1.1" xmlns="http://www.w3.org/2000/svg" width="24" height="24">
<path d="M0 0 C2.24000658 0.97847401 4.44089733 2.00460778 6.62890625 3.09375 C6.62890625 4.08375 6.62890625 5.07375 6.62890625 6.09375 C5.63890625 6.58875 5.63890625 6.58875 4.62890625 7.09375 C5.28890625 8.41375 5.94890625 9.73375 6.62890625 11.09375 C5.96890625 11.75375 5.30890625 12.41375 4.62890625 13.09375 C5.28890625 13.42375 5.94890625 13.75375 6.62890625 14.09375 C6.62890625 15.08375 6.62890625 16.07375 6.62890625 17.09375 C0.46453369 20.41851576 -3.4862331 21.78674852 -10.37109375 20.09375 C-13.87109375 18.53125 -13.87109375 18.53125 -16.37109375 17.09375 C-16.37109375 16.10375 -16.37109375 15.11375 -16.37109375 14.09375 C-15.71109375 13.76375 -15.05109375 13.43375 -14.37109375 13.09375 C-15.03109375 12.43375 -15.69109375 11.77375 -16.37109375 11.09375 C-16.37109375 10.10375 -16.37109375 9.11375 -16.37109375 8.09375 C-15.71109375 7.76375 -15.05109375 7.43375 -14.37109375 7.09375 C-15.03109375 6.76375 -15.69109375 6.43375 -16.37109375 6.09375 C-16.37109375 5.10375 -16.37109375 4.11375 -16.37109375 3.09375 C-10.75414366 -0.09964295 -6.44102 -2.46180665 0 0 Z " fill="#0E404F" transform="translate(17.37109375,1.90625)"/>
<path d="M0 0 C-3.20259945 3.20259945 -6.39467495 3.70151698 -10.73828125 4.08203125 C-14.00687756 3.96348112 -16.28386381 2.74111294 -19 1 C-13.00731061 -5.93890351 -7.22907392 -3.86671396 0 0 Z " fill="#96DFF4" transform="translate(22,6)"/>
<path d="M0 0 C2.62527189 -0.05382106 5.24944713 -0.09358313 7.875 -0.125 C8.62136719 -0.14175781 9.36773437 -0.15851562 10.13671875 -0.17578125 C12.09194461 -0.1933959 14.04742021 -0.10320189 16 0 C16.66 0.66 17.32 1.32 18 2 C11.0387673 6.02473255 11.0387673 6.02473255 7.375 5.9375 C4.48191002 4.7954908 1.74195909 3.46662928 -1 2 C-0.67 1.34 -0.34 0.68 0 0 Z " fill="#93DCF1" transform="translate(4,16)"/>
<path d="M0 0 C3.51742629 0.4524021 6.21879998 0.34089697 9.6875 -0.5 C10.3475 -0.17 11.0075 0.16 11.6875 0.5 C11.6875 1.16 11.6875 1.82 11.6875 2.5 C6.8162098 4.9356451 4.12130999 6.03564195 -1.3125 4.5 C-2.99625165 3.87774395 -4.67017228 3.22455635 -6.3125 2.5 C-6.3125 1.84 -6.3125 1.18 -6.3125 0.5 C-3.8320747 -0.74021265 -2.71410851 -0.40141437 0 0 Z " fill="#94DDF2" transform="translate(9.3125,10.5)"/>
<path d="M0 0 C0.33 1.65 0.66 3.3 1 5 C0.01 5.495 0.01 5.495 -1 6 C-1 5.34 -1 4.68 -1 4 C-2.04800781 4.14308594 -2.04800781 4.14308594 -3.1171875 4.2890625 C-4.02726562 4.39992188 -4.93734375 4.51078125 -5.875 4.625 C-7.23238281 4.79902344 -7.23238281 4.79902344 -8.6171875 4.9765625 C-9.40351563 4.98429688 -10.18984375 4.99203125 -11 5 C-11.66 4.34 -12.32 3.68 -13 3 C-12.37351562 2.86722656 -11.74703125 2.73445312 -11.1015625 2.59765625 C-10.28429687 2.42105469 -9.46703125 2.24445312 -8.625 2.0625 C-7.81289062 1.88847656 -7.00078125 1.71445313 -6.1640625 1.53515625 C-3.88723554 0.9721142 -2.3530537 0 0 0 Z " fill="#215766" transform="translate(22,7)"/>
</svg>
