<svg xmlns="http://www.w3.org/2000/svg" version="1.0" width="362.000000pt" height="349.000000pt" viewBox="0 0 362.000000 349.000000" preserveAspectRatio="xMidYMid meet">

<g transform="translate(0.000000,349.000000) scale(0.100000,-0.100000)" fill="#673ab7" stroke="none">
<path d="M1635 3369 c-200 -21 -389 -76 -564 -164 -332 -166 -572 -405 -735 -731 -230 -462 -230 -996 0 -1458 334 -667 1071 -1022 1802 -866 404 86 768 330 1001 670 336 491 380 1122 115 1654 -163 326 -408 569 -739 734 -270 135 -584 192 -880 161z m337 -50 c627 -67 1169 -523 1344 -1129 183 -637 -44 -1317 -572 -1713 -561 -421 -1337 -421 -1898 0 -772 579 -852 1706 -171 2388 343 342 811 506 1297 454z" fill="#673ab7"/>
<path d="M1563 3218 c-60 -9 -62 -11 -58 -36 8 -45 25 -156 25 -164 0 -5 9 -8 21 -8 18 0 20 4 14 44 l-7 43 41 7 c28 4 41 11 41 22 0 14 -8 15 -45 10 -43 -7 -45 -6 -45 17 0 27 16 37 61 37 22 0 29 5 29 20 0 11 -3 19 -7 19 -5 -1 -36 -6 -70 -11z" fill="#673ab7"/>
<path d="M1829 3201 c-24 -24 -29 -38 -29 -76 0 -88 84 -135 146 -82 16 14 24 29 20 35 -9 15 -36 16 -36 2 0 -6 -11 -16 -25 -22 -37 -17 -65 12 -65 67 0 68 49 97 89 54 15 -16 24 -19 37 -11 16 9 15 12 -9 36 -37 37 -89 36 -128 -3z" fill="#673ab7"/>
<path d="M2061 3113 c-52 -75 -59 -89 -44 -96 12 -7 20 -4 33 13 15 20 22 22 56 14 29 -7 40 -16 44 -34 7 -30 40 -40 40 -13 0 10 -5 56 -12 103 -18 130 -34 132 -117 13z m79 -8 c0 -35 -12 -43 -39 -26 -11 7 -10 13 4 35 24 36 35 33 35 -9z" fill="#673ab7"/>
<path d="M1301 3143 c-33 -31 -38 -51 -28 -105 16 -78 111 -106 168 -49 32 33 36 64 15 115 -29 69 -103 87 -155 39z m88 -13 c25 -13 45 -64 37 -95 -13 -50 -80 -58 -105 -11 -20 37 -17 77 9 98 25 21 34 22 59 8z" fill="#673ab7"/>
<path d="M2290 3125 c-5 -13 -23 -56 -39 -94 -25 -60 -27 -70 -14 -75 19 -7 16 -10 37 32 23 44 43 41 57 -10 6 -24 13 -48 15 -55 1 -6 12 -17 24 -23 20 -11 21 -10 14 27 -4 21 -11 46 -15 55 -7 13 -4 17 18 20 35 4 63 49 47 75 -9 16 -106 71 -127 72 -4 1 -12 -10 -17 -24z m98 -49 c15 -15 6 -46 -14 -46 -19 0 -64 22 -64 31 0 4 3 15 6 24 7 18 49 13 72 -9z" fill="#673ab7"/>
<path d="M1083 3063 c-8 -3 -13 -23 -13 -54 0 -27 -2 -49 -5 -49 -3 0 -23 9 -45 20 -35 18 -70 19 -70 1 0 -4 25 -19 55 -34 36 -18 63 -40 81 -67 24 -36 29 -39 42 -27 12 13 12 18 -5 43 -11 18 -20 54 -23 99 -4 51 -9 71 -17 68z" fill="#673ab7"/>
<path d="M2471 2962 c-45 -79 -49 -88 -34 -99 15 -11 23 -2 65 73 53 96 54 99 34 107 -11 4 -30 -20 -65 -81z" fill="#673ab7"/>
<path d="M1680 2969 c-288 -25 -551 -148 -761 -358 -213 -213 -330 -462 -359 -766 -34 -359 97 -713 359 -976 240 -240 532 -361 871 -360 340 0 631 120 871 360 380 381 472 946 231 1426 -115 230 -317 432 -550 549 -196 99 -439 145 -662 125z m100 -434 l0 -164 -42 -13 c-62 -18 -84 -34 -120 -91 l-32 -52 -4 -202 -5 -203 -337 0 -338 0 -5 308 c-2 169 -8 316 -12 328 -6 20 -2 21 85 27 81 6 102 12 185 52 55 26 113 63 141 90 27 25 50 45 52 45 2 0 18 -7 35 -16 18 -9 40 -21 49 -25 10 -5 60 -9 111 -9 102 0 130 9 185 60 18 16 37 30 43 30 5 0 9 -69 9 -165z m898 -32 c-21 -2 -57 -2 -80 0 -24 2 -7 4 37 4 44 0 63 -2 43 -4z m-421 -151 c51 -2 100 1 111 7 15 8 23 6 37 -9 17 -18 17 -24 4 -63 -19 -56 -19 -235 0 -270 25 -46 4 -54 -149 -54 -97 0 -137 3 -147 13 -16 16 -17 36 0 53 17 17 16 204 -2 258 -13 39 -13 45 4 63 12 14 24 18 34 13 9 -4 57 -9 108 -11z m-401 -21 c51 -23 92 -64 99 -99 3 -15 10 -43 15 -63 15 -54 13 -742 -2 -791 -30 -103 -175 -171 -256 -121 -46 28 -83 67 -95 98 -18 45 -7 861 12 894 49 86 143 120 227 82z m-276 -615 l0 -74 -30 11 c-24 9 -36 8 -65 -6 -43 -20 -79 -22 -94 -4 -6 8 -29 20 -51 27 -35 12 -48 11 -100 -5 -33 -10 -67 -26 -76 -37 -22 -23 -45 -23 -89 2 -45 25 -46 25 -81 -8 -34 -32 -75 -62 -86 -62 -5 0 -8 52 -8 115 l0 115 340 0 340 0 0 -74z m1099 -163 c-1 -131 -4 -251 -8 -268 -8 -37 -56 -55 -99 -36 -26 12 -26 12 -10 -6 16 -18 16 -19 -2 -19 -10 0 -17 3 -15 6 2 4 -18 7 -45 7 -28 0 -47 -3 -44 -8 3 -5 -2 -6 -10 -3 -11 4 -16 0 -17 -12 0 -12 -3 -14 -6 -6 -3 7 0 18 5 25 13 15 -77 13 -111 -3 -21 -11 -21 -10 -3 4 11 9 17 19 13 22 -4 4 -13 1 -21 -6 -21 -16 -79 -17 -110 0 -21 11 -28 11 -41 0 -9 -7 -29 -13 -46 -12 -20 0 -27 -3 -23 -11 4 -7 3 -8 -2 -4 -5 5 -9 14 -9 20 0 7 -11 12 -25 12 -14 0 -24 -5 -23 -11 3 -13 -28 -9 -65 9 -17 8 -25 8 -34 -1 -7 -7 -18 -12 -26 -12 -8 0 6 20 31 44 28 27 50 59 56 82 6 22 11 125 11 232 l0 192 340 0 340 0 -1 -237z m-1344 -63 c-3 -6 -19 -10 -34 -10 -15 0 -33 -6 -40 -12 -10 -10 -12 -10 -7 -1 5 9 -2 12 -24 10 -16 -1 -30 -6 -30 -10 0 -5 -4 -5 -10 -2 -17 11 -11 28 9 22 10 -2 23 -2 29 2 18 11 114 12 107 1z m72 -5 c0 -8 -4 -12 -8 -9 -4 2 -15 -6 -23 -18 -9 -12 -16 -19 -16 -14 0 5 -7 3 -15 -4 -9 -7 -18 -10 -22 -7 -3 4 6 12 21 18 28 13 34 34 14 42 -7 3 1 6 18 6 21 1 31 -4 31 -14z m43 -4 c0 -25 17 -36 34 -22 7 6 17 7 22 3 5 -4 0 3 -10 16 l-19 22 35 0 c47 0 52 -9 20 -34 -39 -31 -135 -35 -117 -6 5 8 12 7 23 -2 14 -11 14 -9 -1 15 -15 23 -15 27 -2 27 8 0 15 -9 15 -19z m-329 -12 c-22 -18 -26 -18 -33 -5 -11 19 -49 22 -45 4 1 -7 -4 -12 -12 -10 -8 2 -11 -3 -8 -13 7 -18 -18 -21 -29 -3 -4 7 -3 8 4 4 18 -11 14 10 -4 28 -14 15 -8 16 68 16 l83 -1 -24 -20z m-142 2 c9 -6 10 -11 2 -15 -6 -4 -11 -3 -11 1 0 5 -9 9 -20 10 -11 1 -18 -2 -15 -7 3 -5 -4 -8 -15 -7 -11 1 -20 7 -20 14 0 15 57 18 79 4z m603 -63 c-5 -31 25 -96 62 -133 26 -26 88 -55 117 -55 18 0 19 -12 19 -227 0 -177 -3 -224 -12 -215 -7 7 -22 12 -35 12 -21 0 -23 5 -25 48 0 26 -1 53 -1 60 1 9 -3 10 -11 3 -15 -12 -55 -6 -70 10 -8 9 -8 10 1 5 9 -5 11 -2 7 8 -3 9 -11 13 -18 9 -8 -4 -8 -2 1 7 6 7 9 19 6 28 -5 10 -2 13 6 8 7 -5 10 -14 7 -22 -3 -8 -2 -14 2 -14 14 0 34 82 23 93 -8 8 -11 6 -11 -5 0 -8 -7 -22 -17 -29 -15 -13 -15 -12 1 18 11 23 21 31 33 26 13 -5 15 -2 11 15 -4 12 -3 20 2 17 14 -9 18 20 5 38 -10 14 -14 15 -18 5 -3 -8 -6 -6 -6 5 -1 25 -21 11 -21 -14 0 -11 5 -17 10 -14 6 4 -3 -20 -19 -52 -16 -32 -31 -65 -34 -73 -4 -10 -6 -8 -6 7 -1 12 4 25 10 28 13 9 6 30 -11 30 -7 0 -15 6 -18 13 -2 7 2 10 10 7 10 -4 13 10 11 67 -1 44 3 79 10 88 10 13 10 13 -5 1 -23 -17 -38 -72 -39 -141 -1 -30 -5 -66 -9 -80 -5 -14 -7 44 -5 138 3 140 2 160 -11 148 -8 -8 -14 -25 -14 -38 0 -17 -3 -19 -9 -9 -7 10 -9 8 -9 -10 0 -13 -2 -71 -4 -129 -2 -58 0 -113 5 -124 7 -14 6 -17 -5 -14 -13 5 -14 15 -17 127 -1 45 -4 52 -17 47 -14 -5 -16 -1 -11 23 5 25 4 29 -11 25 -14 -5 -15 -4 -2 5 8 5 11 13 7 17 -12 12 -29 -12 -33 -46 -2 -18 2 -38 10 -46 9 -8 12 -23 8 -36 l-6 -23 -7 25 c-4 14 -7 19 -8 11 -1 -8 -8 -11 -21 -8 -11 3 -18 0 -17 -7 1 -6 -3 -10 -10 -9 -6 1 -10 -5 -8 -15 1 -10 9 -16 19 -14 12 2 16 -5 16 -25 -1 -24 -2 -25 -11 -10 -15 26 -32 21 -25 -8 4 -14 2 -25 -4 -25 -5 0 -10 -5 -10 -11 0 -6 7 -9 15 -5 9 3 15 0 15 -9 0 -20 -2 -20 -45 15 -41 33 -82 39 -92 14 -7 -18 15 -36 35 -29 7 3 10 0 7 -5 -3 -6 3 -10 15 -10 12 0 28 -7 36 -15 19 -19 19 -19 -61 6 -49 15 -64 23 -57 32 6 7 12 26 14 42 2 24 7 29 23 26 11 -2 34 -3 50 -4 17 0 25 -2 18 -4 -9 -3 -10 -9 -1 -23 19 -30 37 -14 28 26 -7 32 -33 63 -52 64 -9 0 -5 51 6 68 4 7 12 10 17 7 5 -4 9 2 10 12 0 14 3 12 11 -7 6 -14 10 -33 9 -44 -2 -10 2 -15 7 -12 6 3 10 23 10 43 0 21 5 39 11 41 19 6 12 22 -10 22 -18 0 -21 4 -16 29 3 15 1 33 -5 39 -8 8 -2 10 21 7 17 -2 31 0 31 5 0 6 9 10 20 10 11 0 20 7 20 15 0 9 7 18 15 21 22 9 18 24 -5 24 -23 0 -25 10 -7 30 10 12 9 12 -4 2 -13 -10 -19 -9 -29 3 -7 8 -17 12 -23 8 -5 -3 -7 -1 -4 5 8 12 25 11 46 -2 9 -6 12 -5 7 2 -3 6 -1 14 5 18 7 4 9 3 5 -4 -3 -6 -2 -13 3 -17 5 -3 14 3 20 12 5 10 13 15 17 10 4 -4 -3 -15 -14 -26 -27 -23 -28 -31 -3 -31 11 0 26 9 34 20 7 10 26 24 41 30 15 5 25 14 21 20 -3 5 0 18 7 30 13 20 13 20 19 -2 3 -13 4 -35 1 -50z m-411 45 c-11 -5 -11 -7 0 -14 10 -6 3 -9 -20 -9 -33 0 -34 1 -15 15 10 8 26 14 34 14 12 0 12 -2 1 -6z m-245 -31 c-9 -2 -15 -9 -13 -15 3 -7 9 -11 14 -10 6 1 8 -9 5 -23 -7 -35 -32 -11 -32 31 0 39 8 49 28 32 13 -10 13 -12 -2 -15z m291 22 c-3 -3 -12 -4 -19 -1 -8 3 -5 6 6 6 11 1 17 -2 13 -5z m68 -4 c3 -6 -4 -10 -17 -10 -18 0 -20 2 -8 10 19 12 18 12 25 0z m-261 -54 c-7 -19 -32 -28 -40 -14 -5 7 -2 8 6 3 10 -6 12 -4 7 8 -5 12 -1 17 13 17 13 0 17 -5 14 -14z m63 -7 c-4 -17 -3 -18 9 -8 12 10 13 9 8 -5 -7 -18 -20 -21 -29 -6 -4 6 -11 8 -16 4 -20 -12 14 -36 42 -30 16 3 32 0 38 -8 9 -10 0 -12 -42 -9 -82 6 -85 9 -47 48 39 41 44 42 37 14z m107 5 c3 -8 2 -12 -4 -9 -6 3 -10 10 -10 16 0 14 7 11 14 -7z m56 8 c0 -4 -9 -13 -19 -19 -17 -11 -20 -10 -18 7 1 19 37 30 37 12z m83 -4 c-2 -5 -6 -8 -9 -7 -7 0 -33 -33 -34 -43 0 -10 44 2 83 23 11 6 17 6 17 -1 0 -6 -13 -13 -30 -16 -16 -4 -30 -10 -30 -15 0 -10 51 -1 67 13 14 11 17 0 5 -19 -12 -18 -109 -15 -116 4 -4 9 -2 21 4 27 16 16 12 30 -5 16 -8 -7 -15 -23 -15 -36 0 -18 -6 -24 -21 -24 -20 0 -20 0 3 31 13 17 28 37 33 45 10 15 52 16 48 2z m-368 -18 c-3 -5 -12 -10 -18 -10 -7 0 -6 4 3 10 19 12 23 12 15 0z m194 -27 c0 -11 -3 -13 -6 -5 -2 6 -9 10 -14 6 -5 -3 -9 0 -9 5 0 6 7 11 15 11 8 0 15 -8 14 -17z m-185 -1 c3 -5 -14 -9 -37 -10 -32 0 -37 1 -22 8 26 11 53 12 59 2z m226 -24 c0 -4 -7 -8 -15 -8 -8 0 -15 4 -15 8 0 5 7 9 15 9 8 0 15 -4 15 -9z m-269 -31 c-6 -8 -9 -33 -7 -55 6 -57 -10 -53 -19 4 -5 34 -3 49 7 55 20 13 32 11 19 -4z m84 -14 c2 -26 -10 -31 -19 -8 -3 8 0 15 7 16 7 0 3 5 -8 10 -19 8 -19 9 -1 6 12 -1 20 -11 21 -24z m144 -1 c-13 -21 -36 -25 -36 -6 0 7 4 11 9 8 4 -3 8 0 8 5 0 6 7 11 15 11 12 0 13 -4 4 -18z m74 11 c-7 -2 -19 -2 -25 0 -7 3 -2 5 12 5 14 0 19 -2 13 -5z m77 -3 c-8 -5 -23 -7 -32 -4 -13 4 -18 0 -18 -15 0 -11 -9 -26 -20 -34 -11 -8 -18 -16 -15 -19 3 -2 -2 -5 -10 -5 -21 0 -19 6 10 33 14 13 25 26 25 29 0 3 0 10 0 15 0 6 17 10 38 10 27 0 33 -3 22 -10z m-243 -20 c10 -13 8 -16 -8 -17 -10 -1 -19 0 -19 2 0 7 12 36 14 33 1 -2 7 -10 13 -18z m237 -1 c-3 -6 0 -15 7 -20 7 -4 10 -11 6 -15 -4 -4 -15 0 -25 9 -15 16 -15 19 -2 27 20 13 23 12 14 -1z m-110 -30 c-3 -5 -9 -7 -14 -4 -18 11 -21 -17 -4 -31 17 -13 16 -13 -9 -2 l-27 11 21 23 c21 22 46 24 33 3z m1493 -11 c-3 -8 -6 -5 -6 6 -1 11 2 17 5 13 3 -3 4 -12 1 -19z m-1741 3 c-3 -5 1 -12 10 -15 12 -5 15 -2 10 11 -5 16 -5 17 7 2 7 -9 21 -19 32 -22 11 -3 2 -5 -20 -4 -37 1 -54 11 -55 30 0 4 5 7 11 7 5 0 8 -4 5 -9z m164 2 c-1 -10 -25 -43 -32 -43 -3 0 -5 7 -5 14 0 8 5 14 11 13 6 -1 10 4 9 11 -2 6 2 12 7 12 6 0 10 -3 10 -7z m170 -10 c0 -3 -7 -2 -16 1 -11 4 -15 2 -11 -8 6 -14 -21 -32 -31 -21 -3 3 -1 5 5 5 6 0 13 9 16 20 3 13 10 18 21 14 9 -3 16 -8 16 -11z m1107 1 c-3 -3 -12 -4 -19 -1 -8 3 -5 6 6 6 11 1 17 -2 13 -5z m-247 -8 c0 -2 -7 -7 -16 -10 -8 -3 -12 -2 -9 4 6 10 25 14 25 6z m-155 -16 c-3 -5 -12 -10 -18 -10 -7 0 -6 4 3 10 19 12 23 12 15 0z m50 0 c3 -6 -1 -7 -9 -4 -18 7 -21 14 -7 14 6 0 13 -4 16 -10z m311 -28 c-15 -15 -15 -15 -4 10 7 15 15 23 17 17 2 -6 -4 -18 -13 -27z m-1385 1 c10 -11 10 -14 2 -9 -7 4 -13 2 -13 -3 0 -10 14 -15 33 -12 5 1 6 -3 2 -9 -3 -6 -11 -8 -16 -5 -5 3 -6 -1 -3 -8 6 -17 44 -30 44 -16 0 15 27 10 34 -6 3 -8 1 -15 -5 -15 -6 0 -8 -4 -4 -9 3 -5 1 -12 -5 -16 -20 -12 1 -25 35 -20 27 3 37 0 45 -16 6 -11 8 -24 4 -30 -4 -7 1 -7 15 0 17 10 22 9 27 -4 5 -12 9 -13 20 -4 11 9 14 6 14 -15 0 -14 -4 -26 -9 -26 -19 0 -81 31 -81 40 0 6 -3 9 -7 8 -11 -3 -123 73 -123 84 0 4 9 3 20 -4 17 -11 22 -10 30 2 15 24 11 36 -5 14 -8 -11 -15 -14 -15 -6 0 6 -11 12 -24 12 -17 0 -27 8 -34 28 -5 15 -13 35 -17 45 -9 23 18 23 36 0z m1034 7 c-3 -5 -12 -10 -18 -10 -7 0 -6 4 3 10 19 12 23 12 15 0z m122 -5 c0 -9 -9 -15 -21 -15 -21 1 -21 1 -2 15 24 18 23 18 23 0z m188 -5 c4 -6 1 -17 -5 -25 -6 -8 -9 -19 -6 -24 4 -5 1 -13 -5 -17 -8 -5 -9 -3 -4 6 6 10 2 11 -18 6 -20 -5 -29 -1 -41 16 -22 30 -20 38 7 37 21 0 21 -1 2 -9 l-20 -9 20 0 c11 0 31 2 43 6 18 4 20 8 10 14 -9 6 -9 9 -1 9 6 0 15 -5 18 -10z m-1245 -10 c0 -5 -9 -14 -20 -20 -19 -10 -20 -10 -8 9 13 22 28 28 28 11z m87 3 c-4 -3 -1 -13 6 -22 10 -14 10 -14 -3 -4 -12 9 -19 8 -33 -1 -9 -7 -17 -18 -17 -24 0 -6 -7 -15 -16 -20 -11 -6 -13 -11 -5 -16 6 -4 14 0 17 8 7 19 55 21 72 4 9 -9 11 -7 7 10 -2 12 0 24 4 26 4 3 8 -7 7 -22 -1 -25 -4 -27 -41 -27 -22 0 -45 -4 -52 -8 -12 -7 -26 7 -29 30 -2 14 61 73 78 73 6 0 8 -3 5 -7z m101 -28 c-3 -29 -7 -30 -34 -10 -16 13 -17 16 -4 25 26 17 40 11 38 -15z m795 18 c-7 -2 -19 -2 -25 0 -7 3 -2 5 12 5 14 0 19 -2 13 -5z m471 -22 c-2 -3 -12 3 -22 13 -16 17 -16 18 5 5 12 -7 20 -15 17 -18z m-374 9 c-36 -12 -80 -12 -80 0 0 6 24 10 53 9 41 -1 47 -3 27 -9z m460 -5 c-7 -8 -17 -15 -23 -15 -6 0 -2 7 9 15 25 19 30 19 14 0z m-554 -12 c25 -33 17 -43 -33 -43 -35 0 -44 -3 -33 -10 8 -5 10 -10 5 -10 -6 0 -19 9 -28 21 -10 11 -24 18 -32 15 -9 -3 -12 0 -8 10 13 35 107 46 129 17z m173 -18 c-5 -4 -54 -13 -86 -14 -7 -1 -13 -4 -13 -9 0 -4 19 -6 43 -5 34 2 37 1 17 -6 -26 -9 -104 -13 -82 -4 6 2 12 9 12 14 0 6 -5 7 -11 3 -10 -6 -29 12 -29 29 0 4 17 7 38 8 20 1 48 4 62 9 24 7 61 -12 49 -25z m-949 -15 c0 -5 -4 -10 -9 -10 -6 0 -13 5 -16 10 -3 6 1 10 9 10 9 0 16 -4 16 -10z m200 -11 c0 -6 -4 -7 -10 -4 -5 3 -10 11 -10 16 0 6 5 7 10 4 6 -3 10 -11 10 -16z m795 11 c3 -5 1 -10 -4 -10 -6 0 -11 5 -11 10 0 6 2 10 4 10 3 0 8 -4 11 -10z m40 -19 c-3 -6 -11 -11 -16 -11 -5 0 -4 6 3 14 14 16 24 13 13 -3z m-278 -7 c-3 -3 -12 -4 -19 -1 -8 3 -5 6 6 6 11 1 17 -2 13 -5z m48 -4 c3 -5 -1 -10 -9 -10 -8 0 -18 5 -21 10 -3 6 1 10 9 10 8 0 18 -4 21 -10z m150 -10 c-11 -5 -31 -8 -45 -8 -23 0 -22 1 5 8 42 11 65 11 40 0z m-125 -20 c-14 -4 -36 -8 -50 -8 -22 0 -22 1 5 8 17 4 39 8 50 8 16 0 15 -2 -5 -8z m-890 -12 c0 -4 -7 -8 -15 -8 -8 0 -15 4 -15 8 0 5 7 9 15 9 8 0 15 -4 15 -9z m244 -32 c-6 -15 -24 -23 -24 -11 0 8 24 34 28 30 1 -1 0 -10 -4 -19z m735 -13 c2 -2 0 -3 -6 -3 -6 0 -21 9 -34 21 l-24 20 30 -17 c17 -10 32 -19 34 -21z m96 27 c3 -6 -1 -7 -9 -4 -18 7 -21 14 -7 14 6 0 13 -4 16 -10z m-1250 -18 c-3 -3 -11 0 -18 7 -9 10 -8 11 6 5 10 -3 15 -9 12 -12z m172 -4 c-3 -8 -6 -5 -6 6 -1 11 2 17 5 13 3 -3 4 -12 1 -19z m1118 2 c-3 -5 -16 -10 -28 -9 -20 1 -20 2 3 9 14 4 26 8 28 9 2 1 0 -3 -3 -9z m-352 -7 c-7 -2 -19 -2 -25 0 -7 3 -2 5 12 5 14 0 19 -2 13 -5z m-73 -13 c8 -5 11 -10 5 -10 -5 0 -17 5 -25 10 -8 5 -10 10 -5 10 6 0 17 -5 25 -10z m130 -4 c-4 -4 -16 -4 -26 2 -16 9 -14 10 8 9 15 -1 23 -6 18 -11z m20 -16 c-8 -5 -24 -9 -35 -9 -16 1 -16 2 5 9 35 11 48 11 30 0z m290 0 c-8 -5 -19 -10 -25 -10 -5 0 -3 5 5 10 8 5 20 10 25 10 6 0 3 -5 -5 -10z m-427 -7 c-7 -2 -21 -2 -30 0 -10 3 -4 5 12 5 17 0 24 -2 18 -5z m-683 -33 c8 -5 11 -10 5 -10 -5 0 -17 5 -25 10 -8 5 -10 10 -5 10 6 0 17 -5 25 -10z m165 -1 c4 -5 -3 -9 -14 -9 -26 0 -35 15 -11 17 11 1 22 -2 25 -8z m109 -44 c-16 -11 -21 -10 -35 6 -9 10 -23 19 -30 19 -11 0 -11 2 1 9 8 6 17 8 21 5 4 -2 11 1 14 7 5 7 14 3 27 -11 19 -21 19 -22 2 -35z m-199 25 c13 -5 14 -9 5 -9 -8 0 -24 4 -35 9 -13 5 -14 9 -5 9 8 0 24 -4 35 -9z m275 -20 c14 -1 27 -1 30 0 3 1 15 3 28 4 18 2 22 -2 20 -18 -2 -13 -9 -19 -18 -17 -8 2 -34 8 -57 14 -28 7 -43 16 -43 26 0 11 3 12 8 5 4 -7 18 -13 32 -14z m-193 -6 c-3 -3 -12 -4 -19 -1 -8 3 -5 6 6 6 11 1 17 -2 13 -5z m230 -40 c-3 -3 -12 -4 -19 -1 -8 3 -5 6 6 6 11 1 17 -2 13 -5z m213 -8 c0 -2 -7 -6 -15 -10 -8 -3 -15 -1 -15 4 0 6 7 10 15 10 8 0 15 -2 15 -4z" fill="#673ab7"/>
<path d="M1070 2350 c0 -16 5 -30 10 -30 26 0 -7 -285 -41 -353 -10 -22 -19 -50 -19 -63 l0 -24 235 0 235 0 0 28 c0 15 -6 39 -14 54 -24 46 -41 167 -41 293 l0 120 -35 0 c-29 0 -36 -4 -38 -22 -5 -31 -22 -29 -22 2 0 22 -4 25 -35 25 -31 0 -35 -3 -35 -25 0 -16 -6 -25 -15 -25 -9 0 -15 9 -15 25 0 22 -4 25 -35 25 -31 0 -35 -3 -35 -25 0 -16 -6 -25 -15 -25 -9 0 -15 9 -15 25 0 22 -4 25 -35 25 -32 0 -35 -2 -35 -30z m50 -5 c0 -8 -7 -15 -15 -15 -8 0 -15 7 -15 15 0 8 7 15 15 15 8 0 15 -7 15 -15z m100 0 c0 -8 -7 -15 -15 -15 -8 0 -15 7 -15 15 0 8 7 15 15 15 8 0 15 -7 15 -15z m100 0 c0 -8 -7 -15 -15 -15 -8 0 -15 7 -15 15 0 8 7 15 15 15 8 0 15 -7 15 -15z m100 0 c0 -8 -7 -15 -15 -15 -8 0 -15 7 -15 15 0 8 7 15 15 15 8 0 15 -7 15 -15z m-270 -45 c0 -13 -7 -20 -20 -20 -13 0 -20 7 -20 20 0 13 7 20 20 20 13 0 20 -7 20 -20z m100 0 c0 -17 -7 -20 -40 -20 -33 0 -40 3 -40 20 0 17 7 20 40 20 33 0 40 -3 40 -20z m90 0 c0 -16 -7 -20 -35 -20 -28 0 -35 4 -35 20 0 16 7 20 35 20 28 0 35 -4 35 -20z m70 0 c0 -15 -7 -20 -25 -20 -18 0 -25 5 -25 20 0 15 7 20 25 20 18 0 25 -5 25 -20z m-210 -50 c0 -5 -20 -10 -45 -10 -25 0 -45 5 -45 10 0 6 20 10 45 10 25 0 45 -4 45 -10z m100 0 c0 -5 -18 -10 -40 -10 -22 0 -40 5 -40 10 0 6 18 10 40 10 22 0 40 -4 40 -10z m90 0 c0 -5 -16 -10 -35 -10 -19 0 -35 5 -35 10 0 6 16 10 35 10 19 0 35 -4 35 -10z m-230 -50 c0 -15 -7 -20 -25 -20 -18 0 -25 5 -25 20 0 15 7 20 25 20 18 0 25 -5 25 -20z m90 0 c0 -17 -7 -20 -40 -20 -33 0 -40 3 -40 20 0 17 7 20 40 20 33 0 40 -3 40 -20z m90 0 c0 -16 -7 -20 -35 -20 -28 0 -35 4 -35 20 0 16 7 20 35 20 28 0 35 -4 35 -20z m70 0 c0 -15 -7 -20 -25 -20 -18 0 -25 5 -25 20 0 15 7 20 25 20 18 0 25 -5 25 -20z m-210 -50 c0 -16 -7 -20 -35 -20 -28 0 -35 4 -35 20 0 16 7 20 35 20 28 0 35 -4 35 -20z m100 0 c0 -17 -7 -20 -40 -20 -33 0 -40 3 -40 20 0 17 7 20 40 20 33 0 40 -3 40 -20z m90 0 c0 -16 -7 -20 -35 -20 -28 0 -35 4 -35 20 0 16 7 20 35 20 28 0 35 -4 35 -20z m-283 -12 c-3 -8 -6 -5 -6 6 -1 11 2 17 5 13 3 -3 4 -12 1 -19z m53 -38 c0 -5 -16 -10 -35 -10 -19 0 -35 5 -35 10 0 6 16 10 35 10 19 0 35 -4 35 -10z m90 0 c0 -5 -16 -10 -35 -10 -19 0 -35 5 -35 10 0 6 16 10 35 10 19 0 35 -4 35 -10z m90 0 c0 -5 -16 -10 -35 -10 -19 0 -35 5 -35 10 0 6 16 10 35 10 19 0 35 -4 35 -10z m80 0 c0 -5 -13 -10 -30 -10 -16 0 -30 5 -30 10 0 6 14 10 30 10 17 0 30 -4 30 -10z m-310 -45 c0 -8 -4 -15 -10 -15 -5 0 -10 7 -10 15 0 8 5 15 10 15 6 0 10 -7 10 -15z m90 0 c0 -10 -11 -15 -35 -15 -24 0 -35 5 -35 15 0 10 11 15 35 15 24 0 35 -5 35 -15z m100 0 c0 -11 -11 -15 -40 -15 -29 0 -40 4 -40 15 0 11 11 15 40 15 29 0 40 -4 40 -15z m90 0 c0 -10 -11 -15 -35 -15 -24 0 -35 5 -35 15 0 10 11 15 35 15 24 0 35 -5 35 -15z m40 0 c0 -8 -4 -15 -10 -15 -5 0 -10 7 -10 15 0 8 5 15 10 15 6 0 10 -7 10 -15z m-270 -45 c0 -5 -18 -10 -40 -10 -22 0 -40 5 -40 10 0 6 18 10 40 10 22 0 40 -4 40 -10z m90 0 c0 -5 -16 -10 -35 -10 -19 0 -35 5 -35 10 0 6 16 10 35 10 19 0 35 -4 35 -10z m90 0 c0 -5 -16 -10 -35 -10 -19 0 -35 5 -35 10 0 6 16 10 35 10 19 0 35 -4 35 -10z m90 0 c0 -5 -16 -10 -35 -10 -19 0 -35 5 -35 10 0 6 16 10 35 10 19 0 35 -4 35 -10z m-330 -45 c0 -8 -9 -15 -20 -15 -13 0 -18 5 -14 15 4 8 12 15 20 15 8 0 14 -7 14 -15z m110 0 c0 -11 -12 -15 -45 -15 -33 0 -45 4 -45 15 0 11 12 15 45 15 33 0 45 -4 45 -15z m100 0 c0 -11 -11 -15 -40 -15 -29 0 -40 4 -40 15 0 11 11 15 40 15 29 0 40 -4 40 -15z m80 0 c0 -10 -10 -15 -30 -15 -20 0 -30 5 -30 15 0 10 10 15 30 15 20 0 30 -5 30 -15z m60 0 c11 -13 8 -15 -14 -15 -16 0 -26 5 -26 15 0 8 6 15 14 15 7 0 19 -7 26 -15z m-380 -50 c0 -8 -7 -15 -15 -15 -8 0 -15 7 -15 15 0 8 7 15 15 15 8 0 15 -7 15 -15z m90 0 c0 -10 -11 -15 -35 -15 -24 0 -35 5 -35 15 0 10 11 15 35 15 24 0 35 -5 35 -15z m100 0 c0 -11 -11 -15 -40 -15 -29 0 -40 4 -40 15 0 11 11 15 40 15 29 0 40 -4 40 -15z m100 0 c0 -11 -11 -15 -40 -15 -29 0 -40 4 -40 15 0 11 11 15 40 15 29 0 40 -4 40 -15z m70 0 c0 -9 -9 -15 -25 -15 -16 0 -25 6 -25 15 0 9 9 15 25 15 16 0 25 -6 25 -15z m37 -7 c-3 -8 -6 -5 -6 6 -1 11 2 17 5 13 3 -3 4 -12 1 -19z" fill="#673ab7"/>
<path d="M2120 2333 c0 -11 7 -40 15 -63 20 -57 20 -208 0 -234 -8 -11 -15 -28 -15 -37 0 -16 13 -18 140 -17 129 0 140 1 140 18 0 11 -4 21 -9 25 -17 10 -23 129 -11 196 6 35 14 79 17 98 l6 34 -34 -9 c-43 -11 -174 -11 -216 0 -29 8 -33 6 -33 -11z m145 -18 c28 0 65 3 84 8 l34 7 -9 -32 c-9 -35 -12 -251 -4 -281 5 -18 -3 -19 -105 -19 l-110 0 3 28 c8 79 6 205 -4 252 l-11 52 36 -7 c20 -5 59 -8 86 -8z" fill="#673ab7"/>
<path d="M2242 2178 c-18 -18 -15 -36 7 -48 15 -7 23 -6 35 6 20 19 20 19 0 38 -19 19 -26 20 -42 4z" fill="#673ab7"/>
<path d="M1760 2105 l0 -85 -50 0 c-49 0 -50 -1 -50 -30 0 -29 1 -30 50 -30 l50 0 0 -280 0 -280 30 0 30 0 0 280 0 280 50 0 c49 0 50 1 50 30 0 29 -1 30 -50 30 l-50 0 0 85 0 85 -30 0 -30 0 0 -85z" fill="#673ab7"/>
<path d="M2404 1673 c5 -9 -1 -13 -21 -14 -45 -1 -65 -6 -123 -28 -30 -12 -56 -21 -57 -21 -2 0 -3 -4 -3 -10 0 -13 27 -13 32 -1 2 5 16 13 32 17 20 5 27 3 22 -4 -3 -6 -2 -13 4 -17 5 -3 10 3 10 14 0 17 6 21 31 21 17 0 39 4 49 10 13 7 19 6 23 -5 4 -9 1 -12 -9 -8 -7 3 -14 0 -14 -6 0 -6 8 -11 18 -11 11 0 27 -9 37 -20 11 -12 25 -18 34 -15 8 3 12 3 9 -1 -4 -3 -1 -22 7 -41 8 -20 15 -44 15 -54 0 -11 5 -19 11 -19 8 0 9 11 4 33 -4 17 -8 44 -8 59 -1 18 -8 30 -19 34 -16 5 -22 16 -19 37 0 4 -6 7 -14 7 -8 0 -15 -4 -15 -10 0 -23 -16 -8 -18 17 -1 15 -7 32 -14 38 -8 7 -9 6 -4 -2z" fill="#673ab7"/>
<path d="M2235 1591 c-3 -6 -3 -11 2 -11 4 0 2 -4 -5 -9 -10 -6 -1 -14 32 -30 25 -12 48 -31 51 -42 4 -10 15 -19 25 -19 12 0 17 5 14 13 -4 11 4 13 40 7 25 -4 52 -12 60 -20 24 -19 20 -55 -9 -70 -34 -18 -32 -38 4 -32 24 3 29 0 35 -22 5 -19 13 -26 31 -26 27 0 30 7 15 30 -6 10 -10 11 -10 3 0 -20 -18 -15 -25 7 -4 12 -15 20 -28 20 l-22 1 23 19 c34 28 20 90 -20 90 -8 0 -23 7 -34 15 -10 8 -40 15 -66 15 -47 0 -63 12 -33 24 8 3 15 11 15 17 0 7 -8 5 -20 -6 -22 -20 -52 -13 -48 11 3 19 -17 30 -27 15z" fill="#673ab7"/>
<path d="M2398 1561 c5 -14 4 -14 -14 -2 -18 14 -18 14 -2 -4 13 -14 22 -16 37 -9 20 9 20 9 -3 20 -21 10 -23 9 -18 -5z" fill="#673ab7"/>
<path d="M2590 1490 c0 -5 5 -10 10 -10 6 0 10 5 10 10 0 6 -4 10 -10 10 -5 0 -10 -4 -10 -10z" fill="#673ab7"/>
<path d="M2196 1443 c-11 -11 -7 -20 9 -20 8 0 15 4 15 8 0 11 -16 20 -24 12z" fill="#673ab7"/>
<path d="M2512 1420 c0 -14 2 -19 5 -12 2 6 2 18 0 25 -3 6 -5 1 -5 -13z" fill="#673ab7"/>
<path d="M2366 1335 c-3 -8 -1 -15 4 -15 6 0 10 7 10 15 0 8 -2 15 -4 15 -2 0 -6 -7 -10 -15z" fill="#673ab7"/>
<path d="M2580 1341 c0 -6 4 -13 10 -16 6 -3 7 1 4 9 -7 18 -14 21 -14 7z" fill="#673ab7"/>
<path d="M1521 1294 c0 -11 3 -14 6 -6 3 7 2 16 -1 19 -3 4 -6 -2 -5 -13z" fill="#673ab7"/>
<path d="M1501 1284 c0 -11 3 -14 6 -6 3 7 2 16 -1 19 -3 4 -6 -2 -5 -13z" fill="#673ab7"/>
<path d="M1469 1172 c-3 -20 -2 -29 4 -23 5 5 7 19 5 32 -3 20 -5 19 -9 -9z" fill="#673ab7"/>
<path d="M1373 1128 c0 -13 1 -17 4 -10 3 6 10 9 16 5 7 -4 6 1 -2 10 -17 21 -17 21 -18 -5z" fill="#673ab7"/>
<path d="M1736 1142 c-3 -5 1 -9 9 -9 8 0 12 4 9 9 -3 4 -7 8 -9 8 -2 0 -6 -4 -9 -8z" fill="#673ab7"/>
<path d="M1620 1080 c-18 -11 -22 -40 -5 -34 13 5 29 34 22 40 -1 2 -9 -1 -17 -6z" fill="#673ab7"/>
<path d="M1686 1014 c-3 -9 -2 -23 2 -31 8 -13 10 -13 15 1 4 11 3 15 -4 10 -8 -4 -9 1 -4 15 7 24 0 29 -9 5z" fill="#673ab7"/>
<path d="M2570 2933 c-75 -68 -45 -169 57 -189 26 -5 33 -2 53 27 l24 32 -34 29 c-30 24 -35 26 -43 12 -6 -11 -3 -19 9 -28 18 -14 12 -36 -11 -36 -8 0 -26 10 -41 23 -21 18 -26 29 -21 48 18 71 97 92 127 34 19 -38 33 -48 42 -30 21 37 -46 105 -104 105 -16 0 -40 -12 -58 -27z" fill="#673ab7"/>
<path d="M836 2894 c-31 -26 -56 -50 -56 -55 0 -18 19 -18 42 0 l24 20 50 -64 c27 -36 54 -64 61 -65 29 -1 21 25 -28 86 l-52 65 22 23 c19 20 19 36 0 36 -3 0 -32 -21 -63 -46z" fill="#673ab7"/>
<path d="M722 2797 c-9 -10 4 -28 62 -86 59 -58 75 -70 84 -58 9 10 -4 28 -62 86 -59 58 -75 70 -84 58z" fill="#673ab7"/>
<path d="M2795 2753 c-33 -14 -75 -31 -94 -39 -32 -13 -33 -16 -19 -30 12 -12 20 -14 34 -6 16 9 25 5 51 -20 28 -27 30 -33 20 -55 -8 -18 -7 -27 4 -38 12 -12 20 -2 58 82 31 69 41 101 34 112 -14 22 -22 22 -88 -6z m40 -53 c-17 -34 -27 -37 -45 -15 -14 17 -14 17 15 33 37 21 47 15 30 -18z" fill="#673ab7"/>
<path d="M590 2644 c-7 -8 -11 -16 -9 -18 2 -2 38 -31 79 -65 l75 -62 28 33 c46 53 59 76 51 89 -5 9 -18 0 -43 -29 l-36 -41 -67 54 c-57 47 -68 52 -78 39z" fill="#673ab7"/>
<path d="M2915 2584 c-89 -59 -89 -59 -78 -78 8 -14 13 -13 45 9 19 13 38 21 42 18 11 -11 7 -49 -9 -87 -13 -32 -14 -40 -2 -57 14 -19 15 -18 31 21 9 22 16 48 16 57 0 13 3 14 12 5 21 -21 66 -14 83 12 15 22 15 27 -1 58 -22 44 -54 88 -62 88 -4 0 -39 -21 -77 -46z m99 -35 c17 -28 17 -32 3 -47 -13 -13 -19 -13 -32 -2 -28 23 -38 50 -24 66 18 22 33 17 53 -17z" fill="#673ab7"/>
<path d="M485 2480 c-4 -14 11 -40 55 -97 34 -43 66 -79 71 -81 17 -7 22 29 6 46 -15 14 -14 19 5 54 19 34 26 38 49 33 19 -4 28 -1 33 11 4 9 5 18 4 20 -4 3 -191 34 -207 34 -5 0 -12 -9 -16 -20z m103 -30 c14 0 16 -19 3 -39 -8 -12 -12 -13 -26 -1 -9 7 -21 22 -27 33 -9 18 -8 19 13 14 13 -4 30 -7 37 -7z" fill="#673ab7"/>
<path d="M2987 2363 c-53 -4 -56 -5 -47 -24 6 -11 21 -19 36 -19 18 0 29 -9 41 -35 15 -32 15 -36 0 -53 -16 -17 -15 -52 2 -52 3 0 38 35 77 78 57 62 70 82 62 95 -9 18 -28 19 -171 10z m100 -60 c-23 -24 -29 -26 -37 -13 -19 29 -11 40 27 40 l38 0 -28 -27z" fill="#673ab7"/>
<path d="M394 2295 c-13 -31 -24 -59 -24 -63 0 -4 42 -23 93 -43 81 -32 93 -35 98 -20 5 12 -2 20 -27 31 -28 12 -33 19 -28 35 24 78 7 115 -53 115 -32 0 -36 -4 -59 -55z m89 3 c4 -12 -11 -68 -19 -68 -1 0 -14 5 -28 11 -16 8 -23 17 -19 28 10 27 25 41 43 41 10 0 20 -6 23 -12z" fill="#673ab7"/>
<path d="M3032 2153 c-6 -2 -9 -9 -6 -15 5 -7 -2 -9 -21 -4 -25 6 -27 5 -16 -8 16 -19 21 -19 55 -6 17 6 24 14 20 25 -6 16 -11 17 -32 8z" fill="#673ab7"/>
<path d="M340 2131 c0 -12 9 -20 28 -24 15 -4 58 -15 95 -26 59 -17 69 -18 74 -5 8 21 7 21 -88 49 -102 30 -109 30 -109 6z" fill="#673ab7"/>
<path d="M320 2020 c-22 -22 -27 -78 -10 -111 15 -26 62 -49 104 -49 74 0 120 86 76 143 -25 31 -35 34 -44 10 -4 -10 -1 -20 9 -25 19 -11 20 -62 0 -78 -18 -15 -88 -8 -110 10 -21 18 -18 58 5 72 23 15 27 48 5 48 -8 0 -24 -9 -35 -20z" fill="#673ab7"/>
<path d="M3137 1987 l-68 -10 6 -41 c12 -82 17 -96 31 -96 11 0 14 12 12 52 l-3 52 80 12 c44 7 81 13 82 13 1 1 0 8 -3 16 -7 17 -34 17 -137 2z" fill="#673ab7"/>
<path d="M280 1800 c0 -16 7 -20 38 -20 20 0 67 -3 105 -7 62 -5 67 -5 67 14 0 18 -9 21 -77 27 -122 10 -133 9 -133 -14z" fill="#673ab7"/>
<path d="M3090 1720 c0 -73 2 -80 20 -80 18 0 20 7 20 60 0 59 1 60 28 60 26 0 27 -2 27 -52 0 -40 4 -53 15 -53 11 0 16 14 18 53 3 48 5 52 28 52 23 0 24 -3 24 -55 0 -42 3 -55 15 -55 12 0 15 15 15 75 l0 75 -105 0 -105 0 0 -80z" fill="#673ab7"/>
<path d="M317 1703 c-29 -3 -37 -8 -35 -20 2 -14 15 -16 66 -14 34 1 62 0 62 -2 0 -2 -27 -23 -60 -46 -40 -28 -60 -49 -60 -63 0 -19 4 -20 103 -13 56 4 104 9 106 11 2 2 1 10 -3 19 -5 13 -16 15 -67 9 -73 -8 -72 -2 6 51 33 23 55 46 55 57 0 16 -8 18 -67 16 -38 -1 -85 -3 -106 -5z" fill="#673ab7"/>
<path d="M3221 1554 c-43 -19 -64 -23 -97 -18 -33 5 -42 2 -47 -10 -7 -18 -2 -21 51 -30 21 -4 54 -24 85 -52 48 -43 52 -45 55 -25 3 16 -8 32 -34 55 l-37 32 46 18 c33 12 47 23 47 37 0 24 -3 23 -69 -7z" fill="#673ab7"/>
<path d="M385 1471 c-58 -13 -71 -20 -73 -38 l-3 -21 76 19 c87 22 105 17 105 -32 0 -25 -5 -30 -40 -39 -22 -5 -58 -15 -79 -20 -31 -8 -38 -14 -34 -29 4 -18 7 -18 85 2 92 23 114 45 104 100 -13 71 -41 82 -141 58z" fill="#673ab7"/>
<path d="M3216 1335 c-8 -31 -23 -31 -105 -4 -53 18 -65 19 -72 8 -5 -8 -9 -17 -9 -20 0 -3 36 -16 81 -29 l81 -23 -7 -33 c-4 -26 -2 -34 9 -34 16 0 61 134 51 150 -11 17 -23 11 -29 -15z" fill="#673ab7"/>
<path d="M464 1248 l-92 -40 11 -29 c7 -16 17 -27 23 -25 17 6 124 19 124 14 0 -2 -22 -21 -50 -42 -53 -40 -58 -51 -37 -79 11 -17 18 -15 99 20 64 28 88 43 88 56 0 21 -19 18 -83 -15 -60 -30 -61 -17 -2 27 48 36 65 62 50 77 -3 3 -38 -1 -78 -8 -39 -6 -73 -11 -75 -9 -4 4 107 55 119 55 11 0 11 11 1 27 -5 8 -33 0 -98 -29z" fill="#673ab7"/>
<path d="M2966 1164 c-31 -69 -33 -77 -17 -82 5 -2 22 20 36 48 24 47 27 50 48 39 12 -7 23 -13 25 -14 2 -2 -6 -22 -18 -44 -19 -38 -20 -61 -1 -61 4 0 17 20 29 45 20 40 24 44 42 35 25 -13 25 -12 -1 -62 -15 -28 -18 -43 -10 -51 13 -13 12 -15 50 60 l31 63 -71 35 c-119 61 -110 61 -143 -11z" fill="#673ab7"/>
<path d="M683 869 c-11 -27 -16 -31 -43 -27 -37 6 -38 -4 -4 -27 14 -9 24 -22 21 -28 -2 -7 -8 -23 -12 -36 l-7 -23 30 22 c30 22 32 22 57 6 32 -21 39 -17 26 17 -8 22 -6 28 15 41 34 23 30 36 -10 36 -28 0 -35 4 -40 25 -9 33 -19 31 -33 -6z" fill="#673ab7"/>
<path d="M2863 869 c-11 -27 -16 -31 -43 -27 -37 6 -38 -4 -4 -27 14 -9 24 -22 21 -28 -2 -7 -8 -23 -12 -36 l-7 -23 30 22 c30 22 32 22 57 6 32 -21 39 -17 26 17 -8 22 -6 28 15 41 34 23 30 36 -10 36 -28 0 -35 4 -40 25 -9 33 -19 31 -33 -6z" fill="#673ab7"/>
<path d="M905 691 c-51 -21 -79 -82 -60 -128 44 -105 199 -40 171 72 -4 14 -21 34 -39 45 -35 22 -42 23 -72 11z m75 -50 c15 -30 12 -46 -15 -75 -27 -29 -56 -33 -79 -10 -22 21 -20 46 5 78 25 32 73 36 89 7z" fill="#673ab7"/>
<path d="M2596 682 c-5 -9 100 -142 112 -142 4 0 27 18 51 39 55 47 49 77 -7 31 l-37 -30 -42 47 c-23 27 -42 51 -43 56 0 10 -28 9 -34 -1z" fill="#673ab7"/>
<path d="M1036 533 c-24 -42 -42 -81 -40 -85 11 -17 32 -7 44 22 15 35 12 34 52 14 20 -10 34 -12 40 -6 7 7 0 16 -21 26 -33 17 -41 43 -17 52 8 3 26 -2 40 -11 14 -10 33 -14 43 -11 18 7 17 9 -59 55 l-37 22 -45 -78z" fill="#673ab7"/>
<path d="M2485 600 c-3 -5 2 -50 12 -100 13 -70 20 -90 32 -88 9 2 15 14 16 31 0 38 46 68 75 49 20 -12 40 -9 40 7 0 12 -138 111 -155 111 -7 0 -17 -4 -20 -10z m70 -89 c-14 -14 -17 -14 -25 -1 -5 8 -10 26 -10 39 l0 24 25 -23 c23 -22 24 -25 10 -39z" fill="#673ab7"/>
<path d="M2335 523 c-27 -14 -51 -26 -53 -28 -2 -2 65 -151 74 -163 1 -2 107 45 123 56 3 1 0 7 -6 13 -8 8 -23 4 -53 -11 -23 -12 -43 -20 -45 -18 -1 2 -7 12 -13 24 -10 18 -6 23 35 43 56 27 47 50 -11 26 -20 -9 -41 -13 -46 -10 -22 13 -8 37 30 52 22 9 40 22 40 30 0 19 -18 16 -75 -14z" fill="#673ab7"/>
<path d="M1212 513 c-9 -17 -62 -144 -62 -149 0 -1 7 -4 15 -8 10 -4 20 6 30 30 12 28 19 35 32 29 34 -14 63 -17 63 -6 0 6 -16 17 -36 26 -31 13 -34 17 -24 35 13 24 17 24 50 5 32 -18 50 -19 50 -1 0 7 -21 22 -47 32 -27 11 -51 20 -55 22 -4 2 -11 -5 -16 -15z" fill="#673ab7"/>
<path d="M1346 402 c-30 -89 -31 -102 -11 -102 9 0 23 28 40 81 30 94 28 86 11 92 -11 4 -21 -14 -40 -71z" fill="#673ab7"/>
<path d="M2163 460 c-27 -11 -45 -43 -37 -65 9 -23 37 -35 83 -35 34 0 41 -3 41 -20 0 -24 -43 -38 -64 -21 -7 6 -21 8 -30 5 -29 -11 10 -44 51 -44 36 0 83 36 83 65 0 30 -38 55 -85 55 -32 0 -45 4 -45 14 0 18 39 31 52 18 5 -5 18 -7 29 -5 19 5 19 7 3 24 -18 20 -45 23 -81 9z" fill="#673ab7"/>
<path d="M1461 426 c-81 -45 -60 -176 28 -176 45 0 87 34 57 46 -9 3 -23 1 -31 -6 -7 -6 -24 -10 -37 -8 -33 4 -39 77 -9 107 26 26 36 26 62 0 11 -11 27 -19 36 -17 14 2 12 8 -8 30 -29 33 -66 42 -98 24z" fill="#673ab7"/>
<path d="M1614 330 c-9 -81 -8 -90 7 -90 13 0 19 12 23 53 4 28 9 69 12 90 5 32 3 37 -14 37 -17 0 -20 -11 -28 -90z" fill="#673ab7"/>
<path d="M1891 373 c1 -21 4 -63 7 -93 l7 -55 35 3 c61 5 90 13 90 26 0 8 -16 12 -47 12 -35 -1 -48 3 -50 14 -1 8 -5 41 -8 73 -5 40 -11 57 -21 57 -10 0 -14 -11 -13 -37z" fill="#673ab7"/>
<path d="M1718 310 c-33 -81 -34 -90 -18 -90 10 0 22 9 25 20 9 29 80 29 95 0 12 -22 45 -28 38 -7 -44 126 -64 167 -84 167 -17 0 -27 -17 -56 -90z m82 -16 c0 -2 -11 -4 -25 -4 -28 0 -30 8 -13 45 l12 26 13 -32 c7 -17 13 -33 13 -35z" fill="#673ab7"/>
</g>
</svg>