<svg xmlns="http://www.w3.org/2000/svg" fill="none" viewBox="-0.5 -0.5 24 24" id="Flood-Fill--Streamline-Sharp-Fill-Material-Symbols.svg" height="24" width="24"><desc>Flood Fill Streamline Icon: https://streamlinehq.com</desc><path fill="#6699cc" d="M1.9166666666666667 21.083333333333336v-1.4375c0.5430539583333334 -0.04791666666666667 0.9783002083333333 -0.21960208333333334 1.3057291666666668 -0.5151041666666667C3.549824791666667 18.835227083333336 4.136803958333334 18.6875 4.983333333333333 18.6875c0.84654375 0 1.4494791666666667 0.15970625 1.8088541666666667 0.4791666666666667 0.359375 0.31946041666666664 0.84251875 0.4791666666666667 1.4494791666666667 0.4791666666666667s1.0901041666666667 -0.15970625 1.4494791666666667 -0.4791666666666667c0.359375 -0.31946041666666664 0.9623104166666668 -0.4791666666666667 1.8088541666666667 -0.4791666666666667 0.84654375 0 1.4534562500000001 0.15970625 1.8208333333333333 0.4791666666666667 0.36737708333333335 0.31946041666666664 0.84654375 0.4791666666666667 1.4375 0.4791666666666667 0.6069604166666667 0 1.0901041666666667 -0.19966875 1.4494791666666667 -0.5989583333333334 0.359375 -0.39928958333333336 0.9623104166666668 -0.5989583333333334 1.8088541666666667 -0.5989583333333334 0.84654375 0 1.4335229166666665 0.18768958333333333 1.7609375 0.5630208333333334 0.32741458333333334 0.37533125 0.7626895833333334 0.5869791666666667 1.3057291666666668 0.6348958333333333v1.4375c-0.6708333333333333 0 -1.2178979166666668 -0.19966875 -1.6411458333333333 -0.5989583333333334 -0.42324791666666667 -0.39928958333333336 -0.8984375 -0.5989583333333334 -1.4255208333333333 -0.5989583333333334s-0.9902937500000001 0.19966875 -1.3895833333333334 0.5989583333333334c-0.39928958333333336 0.39928958333333336 -1.0222062500000002 0.5989583333333334 -1.8687500000000001 0.5989583333333334 -0.84654375 0 -1.4694604166666667 -0.15970625 -1.8687500000000001 -0.4791666666666667 -0.39928958333333336 -0.31946041666666664 -0.8625 -0.4791666666666667 -1.3895833333333334 -0.4791666666666667 -0.5270833333333333 0 -0.9902937500000001 0.15970625 -1.3895833333333334 0.4791666666666667 -0.39928958333333336 0.31946041666666664 -1.0222062500000002 0.4791666666666667 -1.8687500000000001 0.4791666666666667 -0.84654375 0 -1.4694604166666667 -0.15970625 -1.8687500000000001 -0.4791666666666667 -0.39928958333333336 -0.31946041666666664 -0.8625 -0.4791666666666667 -1.3895833333333334 -0.4791666666666667 -0.5270833333333333 0 -1.0022585416666667 0.15970625 -1.4255208333333333 0.4791666666666667 -0.4232622916666667 0.31946041666666664 -0.9703125 0.4791666666666667 -1.6411458333333333 0.4791666666666667Zm0 -4.552083333333334v-1.4375c0.5430539583333334 -0.04791666666666667 0.9783002083333333 -0.21960208333333334 1.3057291666666668 -0.5151041666666667 0.32742895833333335 -0.29550208333333333 0.9144081250000001 -0.44322916666666673 1.7609375 -0.44322916666666673 0.17571041666666667 0 0.3553979166666667 0.011979166666666667 0.5390625 0.0359375 0.18366458333333333 0.023958333333333335 0.34739583333333335 0.059895833333333336 0.49114583333333334 0.1078125L4.791666666666667 9.846875 3.3062500000000004 11.691666666666666l-1.1260416666666668 -0.9104166666666667 7.1875 -8.864583333333334 10.661458333333334 4.072916666666667 -0.5270833333333333 1.3416666666666666 -2.2041666666666666 -0.8385416666666667 2.060416666666667 7.690625000000001c0.2875 0.15970625 0.5789770833333333 0.35137291666666665 0.8744791666666667 0.575s0.5789770833333333 0.32741458333333334 0.8505208333333333 0.31145833333333334v1.4614583333333333c-0.6708333333333333 0 -1.2178979166666668 -0.19966875 -1.6411458333333333 -0.5989583333333334C19.01893958333333 15.533002083333333 18.543750000000003 15.333333333333334 18.01666666666667 15.333333333333334s-0.9902937500000001 0.19966875 -1.3895833333333334 0.5989583333333334c-0.39928958333333336 0.39928958333333336 -1.0222062500000002 0.5989583333333334 -1.8687500000000001 0.5989583333333334 -0.84654375 0 -1.4694604166666667 -0.15970625 -1.8687500000000001 -0.4791666666666667 -0.39928958333333336 -0.31946041666666664 -0.8625 -0.4791666666666667 -1.3895833333333334 -0.4791666666666667 -0.5270833333333333 0 -0.9902937500000001 0.15970625 -1.3895833333333334 0.4791666666666667 -0.39928958333333336 0.31946041666666664 -1.0222062500000002 0.4791666666666667 -1.8687500000000001 0.4791666666666667 -0.84654375 0 -1.4694604166666667 -0.15970625 -1.8687500000000001 -0.4791666666666667 -0.39928958333333336 -0.31946041666666664 -0.8625 -0.4791666666666667 -1.3895833333333334 -0.4791666666666667 -0.5270833333333333 0 -1.0022585416666667 0.15970625 -1.4255208333333333 0.4791666666666667 -0.4232622916666667 0.31946041666666664 -0.9703125 0.4791666666666667 -1.6411458333333333 0.4791666666666667Zm12.697916666666668 -1.4375 -1.3177083333333335 -5.055208333333334 -3.2583333333333333 0.8625 0.8864583333333335 3.2583333333333333c0.07987708333333333 -0.031960416666666665 0.16770833333333332 -0.04393958333333334 0.2635416666666667 -0.0359375 0.09583333333333334 0.008002083333333333 0.19966875 0.011979166666666667 0.31145833333333334 0.011979166666666667 0.7986270833333334 0 1.3696020833333333 0.14375 1.7130208333333334 0.43125 0.34341875 0.2875 0.81060625 0.4632104166666667 1.4015625 0.5270833333333333Z" stroke-width="1"></path></svg>